{
  "source": "C:\\Users\\Peter\\Desktop\\stuff\\MIUN\\quantitative_research\\video_compression\\videos\\BVI-HD\\BVI-HD_CDVL_videos\\ORIG\\Lightreef_1920x1080_30fps.mp4",
  "output": "C:\\Users\\Peter\\Desktop\\stuff\\MIUN\\quantitative_research\\video_compression\\compressed_videos\\BVI-HD\\av1\\4\\Lightreef_1920x1080_30fps_av1.mkv",
  "codec": "av1",
  "ok": "Input #0, mov,mp4,m4a,3gp,3g2,mj2, from 'C:\\Users\\Peter\\Desktop\\stuff\\MIUN\\quantitative_research\\video_compression\\videos\\BVI-HD\\BVI-HD_CDVL_videos\\ORIG\\Lightreef_1920x1080_30fps.mp4':\n  Metadata:\n    major_brand     : isom\n    minor_version   : 512\n    compatible_brands: isomiso2avc1mp41\n    encoder         : Lavf54.28.101\n  Duration: 00:00:05.00, start: 0.000000, bitrate: 361719 kb/s\n  Stream #0:0[0x1](und): Video: h264 (High 4:4:4 Predictive) (avc1 / 0x31637661), yuv420p(progressive), 1920x1080, 361715 kb/s, 30 fps, 30 tbr, 30 tbn (default)\n    Metadata:\n      handler_name    : VideoHandler\n      vendor_id       : [0][0][0][0]\n[out#0/matroska @ 000001a3c4839700] Codec AVOption b:a (set bitrate (in bits/s)) has not been used for any stream. The most likely reason is either wrong type (e.g. a video option with no video streams) or that it is a private option of some decoder which was not actually used for any stream.\nStream mapping:\n  Stream #0:0 -> #0:0 (h264 (native) -> av1 (libsvtav1))\nPress [q] to stop, [?] for help\nSvt[info]: -------------------------------------------\nSvt[info]: SVT [version]:\tSVT-AV1 Encoder Lib v3.1.0-19-g6ecfe8ec\nSvt[info]: SVT [build]  :\tGCC 15.2.0\t 64 bit\nSvt[info]: LIB Build date: Aug 17 2025 11:37:13\nSvt[info]: -------------------------------------------\nSvt[info]: Level of Parallelism: 5\nSvt[info]: Number of PPCS 93\nSvt[info]: [asm level on system : up to avx2]\nSvt[info]: [asm level selected : up to avx2]\nSvt[info]: -------------------------------------------\nSvt[info]: SVT [config]: main profile\ttier (auto)\tlevel (auto)\nSvt[info]: SVT [config]: width / height / fps numerator / fps denominator \t\t: 1920 / 1080 / 30 / 1\nSvt[info]: SVT [config]: bit-depth / color format \t\t\t\t\t: 8 / YUV420\nSvt[info]: SVT [config]: preset / tune / pred struct \t\t\t\t\t: 4 / PSNR / random access\nSvt[info]: SVT [config]: gop size / mini-gop size / key-frame type \t\t\t: 161 / 16 / key frame\nSvt[info]: SVT [config]: BRC mode / target bitrate (kbps)\t\t\t\t: VBR / 4000 \nSvt[info]: SVT [config]: AQ mode / Variance Boost \t\t\t\t\t: 2 / 0\nSvt[info]: SVT [config]: sharpness / luminance-based QP bias \t\t\t\t: 0 / 0\nSvt[info]: SVT [config]: QP scale compress strength \t\t\t\t\t: 0\nSvt[info]: -------------------------------------------\nOutput #0, matroska, to 'C:\\Users\\Peter\\Desktop\\stuff\\MIUN\\quantitative_research\\video_compression\\compressed_videos\\BVI-HD\\av1\\4\\Lightreef_1920x1080_30fps_av1.mkv':\n  Metadata:\n    major_brand     : isom\n    minor_version   : 512\n    compatible_brands: isomiso2avc1mp41\n    encoder         : Lavf62.3.100\n  Stream #0:0(und): Video: av1 (AV01 / 0x31305641), yuv420p(tv, progressive), 1920x1080, q=2-31, 4000 kb/s, 30 fps, 1k tbn (default)\n    Metadata:\n      encoder         : Lavc62.11.100 libsvtav1\n      handler_name    : VideoHandler\n      vendor_id       : [0][0][0][0]\n    Side data:\n      cpb: bitrate max/min/avg: 0/0/4000000 buffer size: 4000000 vbv_delay: N/A\nframe=    0 fps=0.0 q=0.0 size=       0KiB time=N/A bitrate=N/A speed=N/A elapsed=0:00:01.02    \nframe=    0 fps=0.0 q=0.0 size=       0KiB time=N/A bitrate=N/A speed=N/A elapsed=0:00:01.61    \nframe=    0 fps=0.0 q=0.0 size=       0KiB time=N/A bitrate=N/A speed=N/A elapsed=0:00:02.17    \nframe=    0 fps=0.0 q=0.0 size=       0KiB time=N/A bitrate=N/A speed=N/A elapsed=0:00:02.75    \nframe=    0 fps=0.0 q=0.0 size=       0KiB time=N/A bitrate=N/A speed=N/A elapsed=0:00:03.30    \nframe=    0 fps=0.0 q=0.0 size=       0KiB time=N/A bitrate=N/A speed=N/A elapsed=0:00:03.82    \nframe=    0 fps=0.0 q=0.0 size=       0KiB time=N/A bitrate=N/A speed=N/A elapsed=0:00:04.33    \nframe=    0 fps=0.0 q=0.0 size=       0KiB time=N/A bitrate=N/A speed=N/A elapsed=0:00:04.87    \nframe=    1 fps=0.2 q=25.0 size=       1KiB time=00:00:00.00 bitrate=N/A speed=   0x elapsed=0:00:05.38    \nframe=    1 fps=0.2 q=25.0 size=       1KiB time=00:00:00.00 bitrate=N/A speed=   0x elapsed=0:00:05.91    \nframe=    1 fps=0.2 q=25.0 size=       1KiB time=00:00:00.00 bitrate=N/A speed=   0x elapsed=0:00:06.42    \nframe=    1 fps=0.1 q=25.0 size=       1KiB time=00:00:00.00 bitrate=N/A speed=   0x elapsed=0:00:06.93    \nframe=    6 fps=0.8 q=41.0 size=       1KiB time=00:00:00.16 bitrate=  34.2kbits/s speed=0.0224x elapsed=0:00:07.45    \nframe=    8 fps=1.0 q=41.0 size=       1KiB time=00:00:00.23 bitrate=  24.4kbits/s speed=0.0293x elapsed=0:00:07.96    \nframe=   13 fps=1.5 q=38.0 size=       1KiB time=00:00:00.40 bitrate=  14.3kbits/s speed=0.047x elapsed=0:00:08.51    \nframe=   18 fps=2.0 q=41.0 size=       1KiB time=00:00:00.56 bitrate=  10.1kbits/s speed=0.0626x elapsed=0:00:09.05    \nframe=   23 fps=2.4 q=40.0 size=       1KiB time=00:00:00.73 bitrate=   7.8kbits/s speed=0.0766x elapsed=0:00:09.56    \nframe=   24 fps=2.4 q=41.0 size=       1KiB time=00:00:00.76 bitrate=   7.4kbits/s speed=0.0759x elapsed=0:00:10.10    \nframe=   30 fps=2.8 q=43.0 size=       1KiB time=00:00:00.96 bitrate=   5.9kbits/s speed=0.091x elapsed=0:00:10.62    \nframe=   35 fps=3.1 q=43.0 size=       1KiB time=00:00:01.13 bitrate=   5.0kbits/s speed=0.102x elapsed=0:00:11.15    \nframe=   40 fps=3.4 q=44.0 size=       1KiB time=00:00:01.30 bitrate=   4.4kbits/s speed=0.111x elapsed=0:00:11.68    \nframe=   46 fps=3.8 q=44.0 size=       1KiB time=00:00:01.50 bitrate=   3.8kbits/s speed=0.123x elapsed=0:00:12.24    \nframe=   51 fps=4.0 q=44.0 size=       1KiB time=00:00:01.66 bitrate=   3.4kbits/s speed=0.13x elapsed=0:00:12.77    \nframe=   57 fps=4.3 q=39.0 size=       1KiB time=00:00:01.86 bitrate=   3.1kbits/s speed=0.14x elapsed=0:00:13.30    \nframe=   61 fps=4.4 q=42.0 size=       1KiB time=00:00:02.00 bitrate=   2.9kbits/s speed=0.145x elapsed=0:00:13.82    \nframe=   65 fps=4.5 q=32.0 size=       1KiB time=00:00:02.13 bitrate=   2.7kbits/s speed=0.149x elapsed=0:00:14.34    \nframe=   71 fps=4.8 q=44.0 size=       1KiB time=00:00:02.33 bitrate=   2.4kbits/s speed=0.157x elapsed=0:00:14.88    \nframe=   75 fps=4.9 q=44.0 size=       1KiB time=00:00:02.46 bitrate=   2.3kbits/s speed=0.16x elapsed=0:00:15.40    \nframe=   81 fps=5.1 q=32.0 size=       1KiB time=00:00:02.66 bitrate=   2.1kbits/s speed=0.167x elapsed=0:00:15.94    \nframe=   85 fps=5.2 q=42.0 size=       1KiB time=00:00:02.80 bitrate=   2.0kbits/s speed=0.17x elapsed=0:00:16.48    \nframe=   89 fps=5.2 q=39.0 size=       1KiB time=00:00:02.93 bitrate=   1.9kbits/s speed=0.172x elapsed=0:00:17.01    \nframe=   93 fps=5.3 q=39.0 size=       1KiB time=00:00:03.06 bitrate=   1.9kbits/s speed=0.174x elapsed=0:00:17.57    \nframe=   99 fps=5.5 q=45.0 size=       1KiB time=00:00:03.26 bitrate=   1.7kbits/s speed=0.18x elapsed=0:00:18.10    \nframe=  105 fps=5.6 q=39.0 size=       1KiB time=00:00:03.46 bitrate=   1.6kbits/s speed=0.186x elapsed=0:00:18.63    \nframe=  105 fps=5.5 q=39.0 size=       1KiB time=00:00:03.46 bitrate=   1.6kbits/s speed=0.181x elapsed=0:00:19.15    \nframe=  111 fps=5.6 q=43.0 size=       1KiB time=00:00:03.66 bitrate=   1.6kbits/s speed=0.186x elapsed=0:00:19.68    \nframe=  117 fps=5.8 q=43.0 size=       1KiB time=00:00:03.86 bitrate=   1.5kbits/s speed=0.191x elapsed=0:00:20.22    \nframe=  121 fps=5.8 q=40.0 size=       1KiB time=00:00:04.00 bitrate=   1.4kbits/s speed=0.193x elapsed=0:00:20.77    \nframe=  125 fps=5.9 q=41.0 size=       1KiB time=00:00:04.13 bitrate=   1.4kbits/s speed=0.194x elapsed=0:00:21.29    \nframe=  129 fps=5.9 q=33.0 size=       1KiB time=00:00:04.26 bitrate=   1.3kbits/s speed=0.196x elapsed=0:00:21.80    \nframe=  137 fps=6.1 q=41.0 size=       1KiB time=00:00:04.53 bitrate=   1.3kbits/s speed=0.203x elapsed=0:00:22.33    \nframe=  141 fps=6.2 q=47.0 size=       1KiB time=00:00:04.66 bitrate=   1.2kbits/s speed=0.204x elapsed=0:00:22.86    \n[out#0/matroska @ 000001a3c4839700] video:2549KiB audio:0KiB subtitle:0KiB other streams:0KiB global headers:0KiB muxing overhead: 0.055855%\nframe=  150 fps=6.5 q=47.0 Lsize=    2551KiB time=00:00:04.96 bitrate=4206.9kbits/s speed=0.214x elapsed=0:00:23.19    \n",
  "seconds": 23.67359495162964,
  "probe_out": {}
}